<svg width="26" height="26" viewBox="0 0 26 26" fill="none" xmlns="http://www.w3.org/2000/svg">
<g clip-path="url(#clip0_115_2)">
<path d="M13 0H0V26H13V0Z" fill="#1E3A8A"/>
<path d="M26 0H13V26H26V0Z" fill="#FFD700"/>
<path d="M0.546875 21V19.291L2.06055 18.998V8.79297L0.546875 8.5V6.78125H2.06055H7.31445C8.40169 6.78125 9.33919 6.97331 10.127 7.35742C10.9147 7.73503 11.5202 8.26562 11.9434 8.94922C12.3665 9.6263 12.5781 10.4173 12.5781 11.3223C12.5781 12.2272 12.3665 13.0215 11.9434 13.7051C11.5202 14.3822 10.9147 14.9095 10.127 15.2871C9.33919 15.6582 8.40169 15.8438 7.31445 15.8438H4.91211V18.998L6.43555 19.291V21H0.546875ZM4.91211 13.6465H7.31445C8.10872 13.6465 8.70768 13.4316 9.11133 13.002C9.52148 12.5658 9.72656 12.0124 9.72656 11.3418C9.72656 10.6582 9.52148 10.0951 9.11133 9.65234C8.70768 9.20312 8.10872 8.97852 7.31445 8.97852H4.91211V13.6465Z" fill="white"/>
<path d="M19.3477 21.2051C18.2995 21.2051 17.3457 21.0879 16.4863 20.8535C15.627 20.6191 14.7806 20.2122 13.9473 19.6328V16.1953H16.1543L16.457 18.2168C16.75 18.4642 17.1536 18.666 17.668 18.8223C18.1823 18.972 18.7422 19.0469 19.3477 19.0469C19.862 19.0469 20.2949 18.9753 20.6465 18.832C21.0046 18.6888 21.2747 18.487 21.457 18.2266C21.6458 17.9596 21.7402 17.6471 21.7402 17.2891C21.7402 16.9505 21.6556 16.651 21.4863 16.3906C21.3236 16.1237 21.0501 15.8828 20.666 15.668C20.2884 15.4466 19.7741 15.235 19.123 15.0332C17.9967 14.7012 17.0625 14.3398 16.3203 13.9492C15.5846 13.5521 15.0312 13.0801 14.6602 12.5332C14.2956 11.9798 14.1133 11.3158 14.1133 10.541C14.1133 9.77279 14.3249 9.0957 14.748 8.50977C15.1777 7.91732 15.7702 7.45182 16.5254 7.11328C17.2806 6.77474 18.153 6.59896 19.1426 6.58594C20.2363 6.57292 21.2031 6.70312 22.043 6.97656C22.8893 7.25 23.6185 7.63086 24.2305 8.11914V11.3223H22.0918L21.7207 9.36914C21.4733 9.21289 21.138 9.07617 20.7148 8.95898C20.2982 8.8418 19.8229 8.7832 19.2891 8.7832C18.8333 8.7832 18.4297 8.85156 18.0781 8.98828C17.7331 9.125 17.4596 9.32357 17.2578 9.58398C17.056 9.8444 16.9551 10.1602 16.9551 10.5312C16.9551 10.8503 17.043 11.1302 17.2188 11.3711C17.3945 11.6055 17.6875 11.8301 18.0977 12.0449C18.5143 12.2533 19.0872 12.4779 19.8164 12.7188C21.3854 13.1549 22.5736 13.7311 23.3809 14.4473C24.1947 15.1634 24.6016 16.1042 24.6016 17.2695C24.6016 18.0768 24.3835 18.7767 23.9473 19.3691C23.5111 19.9551 22.8991 20.4076 22.1113 20.7266C21.3236 21.0456 20.4023 21.2051 19.3477 21.2051Z" fill="#111111"/>
</g>
<defs>
<clipPath id="clip0_115_2">
<rect width="26" height="26" fill="white"/>
</clipPath>
</defs>
</svg>
